<?xml version="1.0" encoding="utf-8"?>
<svg version="1.1" xmlns:xlink="http://www.w3.org/1999/xlink" width="66px" height="61px" xmlns="http://www.w3.org/2000/svg">
  <g transform="matrix(1 0 0 1 -331 -152 )">
    <path d="M 62.6326530612245 12.1920572916667  C 63.6362545018007 12.5891927083333  64.4153661464586 13.1584201388889  64.9699879951981 13.8997395833333  C 66.0264105642257 15.4088541666667  66.2641056422569 17.1165364583333  65.6830732292917 19.0227864583333  L 54.7887154861945 55.0032552083333  C 54.2869147659064 56.6976996527778  53.2767106842737 58.1207682291667  51.7581032412965 59.2724609375  C 50.2394957983193 60.4241536458333  48.6218487394958 61  46.9051620648259 61  L 10.3397358943577 61  C 8.30612244897959 61  6.34513805522209 60.2917751736111  4.45678271308523 58.8753255208333  C 2.56842737094838 57.4588758680556  1.25450180072029 55.7180989583333  0.51500600240096 53.6529947916667  C -0.118847539015606 51.8791232638889  -0.145258103241297 50.1979166666667  0.43577430972389 48.609375  C 0.43577430972389 48.5034722222222  0.475390156062425 48.1460503472222  0.554621848739496 47.537109375  C 0.633853541416567 46.9281684027778  0.686674669867947 46.4383680555556  0.713085234093638 46.0677083333333  C 0.739495798319328 45.8559027777778  0.699879951980792 45.5712890625  0.594237695078031 45.2138671875  C 0.48859543817527 44.8564453125  0.448979591836735 44.5983072916667  0.475390156062425 44.439453125  C 0.528211284513806 44.1482204861111  0.633853541416567 43.8702256944444  0.792316926770708 43.60546875  C 0.95078031212485 43.3407118055556  1.16866746698679 43.0296223958333  1.44597839135654 42.6722005208333  C 1.72328931572629 42.3147786458333  1.94117647058824 42.0036892361111  2.09963985594238 41.7389322916667  C 2.70708283313325 40.7328559027778  3.30132052821129 39.5215928819444  3.88235294117647 38.1051432291667  C 4.46338535414166 36.6886935763889  4.85954381752701 35.4774305555556  5.07082833133253 34.4713541666667  C 5.1500600240096 34.2065972222222  5.15666266506603 33.8094618055556  5.0906362545018 33.2799479166667  C 5.02460984393758 32.7504340277778  5.01800720288115 32.3797743055556  5.07082833133253 32.16796875  C 5.1500600240096 31.8767361111111  5.37454981992797 31.5060763888889  5.74429771908764 31.0559895833333  C 6.1140456182473 30.6059027777778  6.33853541416567 30.3014322916667  6.41776710684274 30.142578125  C 6.97238895558223 29.189453125  7.52701080432173 27.9715711805556  8.08163265306122 26.4889322916667  C 8.63625450180072 25.0062934027778  8.96638655462185 23.8148871527778  9.07202881152461 22.9147135416667  C 9.0984393757503 22.6764322916667  9.06542617046819 22.2528211805556  8.97298919567827 21.6438802083333  C 8.88055222088836 21.0349392361111  8.88715486194478 20.6642795138889  8.99279711884754 20.5319010416667  C 9.0984393757503 20.1877170138889  9.38895558223289 19.7839626736111  9.86434573829532 19.3206380208333  C 10.3397358943577 18.8573133680556  10.6302521008403 18.5594618055556  10.7358943577431 18.4270833333333  C 11.2376950780312 17.7387152777778  11.7989195678271 16.6201171875  12.4195678271309 15.0712890625  C 13.0402160864346 13.5224609375  13.4033613445378 12.2450086805556  13.5090036014406 11.2389322916667  C 13.5354141656663 11.0271267361111  13.4957983193277 10.6895616319444  13.390156062425 10.2262369791667  C 13.2845138055222 9.76291232638888  13.2581032412965 9.412109375  13.3109243697479 9.173828125  C 13.3637454981993 8.96202256944444  13.4825930372149 8.72374131944444  13.6674669867947 8.458984375  C 13.8523409363746 8.19422743055556  14.0900360144058 7.88975694444444  14.3805522208884 7.54557291666666  C 14.6710684273709 7.20138888888888  14.8955582232893 6.92339409722222  15.0540216086435 6.71158854166666  C 15.265306122449 6.39388020833334  15.4831932773109 5.99012586805555  15.7076830732293 5.50032552083334  C 15.9321728691477 5.0105251736111  16.1302521008403 4.54720052083334  16.3019207683073 4.1103515625  C 16.4735894357743 3.67350260416666  16.6848739495798 3.19694010416666  16.9357743097239 2.6806640625  C 17.1866746698679 2.16438802083334  17.4441776710684 1.74077690972222  17.7082833133253 1.40983072916666  C 17.9723889555822 1.0788845486111  18.3223289315726 0.767795138888884  18.7581032412965 0.4765625  C 19.1938775510204 0.185329861111103  19.6692677070828 0.0330946180555548  20.1842737094838 0.0198567708333356  C 20.6992797118848 0.00661892361110283  21.3265306122449 0.0794270833333356  22.0660264105642 0.23828125  L 22.0264105642257 0.357421875  C 23.0300120048019 0.119140625  23.703481392557 0  24.046818727491 0  L 54.1944777911164 0  C 56.1488595438175 0  57.6542617046819 0.741319444444438  58.7106842737095 2.22395833333334  C 59.7671068427371 3.70659722222222  60.0048019207683 5.4275173611111  59.4237695078031 7.38671875  L 48.5690276110444 43.3671875  C 47.6182472989196 46.5177951388889  46.6740696278511 48.5498046875  45.7364945978391 49.4632161458333  C 44.7989195678271 50.3766276041667  43.1020408163265 50.8333333333333  40.6458583433373 50  L 6.21968787515006 50  C 5.50660264105642 50.8333333333333  5.00480192076831 51.0319010416667  4.71428571428571 51.4290364583333  C 4.42376950780312 51.8526475694444  4.41056422569028 52.421875  4.67466986794718 53.13671875  C 5.30852340936374 54.9900173611111  7.21008403361345 55.9166666666667  10.3793517406963 56  L 46.9447779111645 56  C 47.7106842737095 55.9166666666667  48.4501800720288 55.7114800347222  49.1632653061225 55.3011067708333  C 49.8763505402161 54.8907335069444  50.3385354141657 54.3413628472222  50.5498199279712 53.6529947916667  L 62.4345738295318 14.4557291666667  C 62.6194477791117 13.8732638888889  62.6854741896759 13.1187065972222  62.6326530612245 12.1920572916667  Z M 23.6506602641056 11.4375  L 22.8187274909964 13.9791666666667  C 22.7130852340936 14.3233506944444  22.7394957983193 14.6212022569444  22.8979591836735 14.8727213541667  C 23.0564225690276 15.1242404513889  23.3205282112845 15.25  23.6902761104442 16  L 47.7767106842737 16  C 48.1200480192077 15.25  48.4567827130852 15.1242404513889  48.7869147659064 14.8727213541667  C 49.1170468187275 14.6212022569444  49.3349339735894 14.3233506944444  49.4405762304922 13.9791666666667  L 50.2725090036014 11.4375  C 50.3781512605042 11.0933159722222  50.3517406962785 10.7954644097222  50.1932773109244 10.5439453125  C 50.0348139255702 10.2924262152778  49.7707082833133 10.1666666666667  49.4009603841537 11  L 25.3145258103241 11  C 24.9711884753902 10.1666666666667  24.6344537815126 10.2924262152778  24.3043217286915 10.5439453125  C 23.9741896758703 10.7954644097222  23.7563025210084 11.0933159722222  23.6506602641056 11.4375  Z M 20.3625450180072 21.6041666666667  L 19.530612244898 24.1458333333333  C 19.4249699879952 24.4900173611111  19.4513805522209 24.7878689236111  19.609843937575 25.0393880208333  C 19.7683073229292 25.2909071180556  20.0324129651861 25.4166666666667  20.4021608643457 26  L 44.4885954381753 26  C 44.8319327731092 25.4166666666667  45.1686674669868 25.2909071180556  45.4987995198079 25.0393880208333  C 45.8289315726291 24.7878689236111  46.046818727491 24.4900173611111  46.1524609843938 24.1458333333333  L 46.984393757503 21.6041666666667  C 47.0900360144058 21.2599826388889  47.0636254501801 20.9621310763889  46.9051620648259 20.7106119791667  C 46.7466986794718 20.4590928819444  46.4825930372149 20.3333333333333  46.1128451380552 21  L 22.0264105642257 21  C 21.6830732292917 20.3333333333333  21.3463385354142 20.4590928819444  21.016206482593 20.7106119791667  C 20.6860744297719 20.9621310763889  20.46818727491 21.2599826388889  20.3625450180072 21.6041666666667  Z " fill-rule="nonzero" fill="#ffffff" stroke="none" transform="matrix(1 0 0 1 331 152 )" />
  </g>
</svg>