<?xml version="1.0" encoding="utf-8"?>
<svg version="1.1" xmlns:xlink="http://www.w3.org/1999/xlink" width="24px" height="24px" xmlns="http://www.w3.org/2000/svg">
  <g transform="matrix(1 0 0 1 -286 -318 )">
    <path d="M 22.7755102040816 4.796875  C 23.140456182473 4.953125  23.4237695078031 5.17708333333333  23.625450180072 5.46875  C 24.0096038415366 6.0625  24.0960384153661 6.734375  23.8847539015606 7.484375  L 19.9231692677071 21.640625  C 19.7406962785114 22.3072916666667  19.3733493397359 22.8671875  18.8211284513806 23.3203125  C 18.2689075630252 23.7734375  17.6806722689076 24  17.0564225690276 24  L 3.75990396158463 24  C 3.02040816326531 24  2.30732292917167 23.7213541666667  1.62064825930372 23.1640625  C 0.933973589435774 22.6067708333333  0.456182472989196 21.921875  0.187274909963986 21.109375  C -0.0432172869147659 20.4114583333333  -0.0528211284513806 19.75  0.158463385354142 19.125  C 0.158463385354142 19.0833333333333  0.172869147659064 18.9427083333333  0.201680672268908 18.703125  C 0.230492196878751 18.4635416666667  0.249699879951981 18.2708333333333  0.259303721488595 18.125  C 0.26890756302521 18.0416666666667  0.254501800720288 17.9296875  0.21608643457383 17.7890625  C 0.177671068427371 17.6484375  0.163265306122449 17.546875  0.172869147659064 17.484375  C 0.192076830732293 17.3697916666667  0.230492196878751 17.2604166666667  0.288115246098439 17.15625  C 0.345738295318127 17.0520833333333  0.424969987995198 16.9296875  0.525810324129652 16.7890625  C 0.626650660264106 16.6484375  0.705882352941176 16.5260416666667  0.763505402160864 16.421875  C 0.984393757503001 16.0260416666667  1.20048019207683 15.5494791666667  1.41176470588235 14.9921875  C 1.62304921968788 14.4348958333333  1.76710684273709 13.9583333333333  1.84393757503001 13.5625  C 1.87274909963986 13.4583333333333  1.87515006002401 13.3020833333333  1.85114045618247 13.09375  C 1.82713085234094 12.8854166666667  1.82472989195678 12.7395833333333  1.84393757503001 12.65625  C 1.87274909963986 12.5416666666667  1.95438175270108 12.3958333333333  2.08883553421369 12.21875  C 2.22328931572629 12.0416666666667  2.30492196878752 11.921875  2.33373349339736 11.859375  C 2.53541416566627 11.484375  2.73709483793517 11.0052083333333  2.93877551020408 10.421875  C 3.14045618247299 9.83854166666666  3.26050420168067 9.36979166666666  3.29891956782713 9.015625  C 3.30852340936375 8.921875  3.29651860744298 8.75520833333333  3.26290516206483 8.515625  C 3.22929171668667 8.27604166666667  3.23169267707083 8.13020833333333  3.27010804321729 8.078125  C 3.30852340936375 7.94270833333333  3.41416566626651 7.78385416666666  3.58703481392557 7.6015625  C 3.75990396158463 7.41927083333333  3.8655462184874 7.30208333333333  3.90396158463385 7.25  C 4.08643457382953 6.97916666666667  4.29051620648259 6.5390625  4.51620648259304 5.9296875  C 4.74189675870348 5.3203125  4.87394957983193 4.81770833333333  4.91236494597839 4.421875  C 4.92196878751501 4.33854166666666  4.90756302521008 4.20572916666666  4.86914765906363 4.0234375  C 4.83073229291717 3.84114583333333  4.82112845138055 3.703125  4.84033613445378 3.609375  C 4.85954381752701 3.52604166666666  4.90276110444178 3.43229166666666  4.96998799519808 3.328125  C 5.03721488595438 3.22395833333333  5.12364945978391 3.10416666666666  5.22929171668667 2.96875  C 5.33493397358944 2.83333333333333  5.41656662665066 2.72395833333333  5.47418967587035 2.640625  C 5.55102040816327 2.515625  5.63025210084034 2.35677083333333  5.71188475390156 2.1640625  C 5.79351740696278 1.97135416666666  5.8655462184874 1.7890625  5.92797118847539 1.6171875  C 5.99039615846339 1.4453125  6.0672268907563 1.2578125  6.15846338535414 1.0546875  C 6.24969987995198 0.851562500000001  6.34333733493397 0.684895833333332  6.43937575030012 0.554687499999999  C 6.53541416566627 0.424479166666663  6.66266506602641 0.302083333333331  6.82112845138055 0.1875  C 6.9795918367347 0.0729166666666634  7.15246098439376 0.013020833333333  7.33973589435774 0.00781250000000089  C 7.52701080432173 0.00260416666666341  7.75510204081633 0.0312500000000009  8.02400960384154 0.09375  L 8.00960384153661 0.140625  C 8.37454981992797 0.046875  8.61944777911165 0  8.74429771908764 0  L 19.7070828331333 0  C 20.4177671068427 0  20.9651860744298 0.291666666666664  21.3493397358944 0.875000000000001  C 21.7334933973589 1.45833333333333  21.8199279711885 2.13541666666666  21.608643457383 2.90625  L 17.6614645858343 17.0625  C 17.3157262905162 18.3020833333333  16.9723889555822 19.1015625  16.6314525810324 19.4609375  C 16.2905162064826 19.8203125  15.6734693877551 20  14.7803121248499 20  L 2.26170468187275 20  C 2.00240096038415 20  1.81992797118848 20.078125  1.71428571428571 20.234375  C 1.60864345738295 20.4010416666667  1.60384153661465 20.625  1.69987995198079 20.90625  C 1.93037214885954 21.6354166666667  2.6218487394958 22  3.77430972388956 22  L 17.0708283313325 22  C 17.3493397358944 22  17.6182472989196 21.9192708333333  17.8775510204082 21.7578125  C 18.1368547418968 21.5963541666667  18.3049219687875 21.3802083333333  18.3817527010804 21.109375  L 22.703481392557 5.6875  C 22.7707082833133 5.45833333333333  22.7947178871549 5.16145833333333  22.7755102040816 4.796875  Z M 8.60024009603842 4.5  L 8.29771908763506 5.5  C 8.2593037214886 5.63541666666666  8.26890756302521 5.75260416666666  8.3265306122449 5.8515625  C 8.38415366146459 5.95052083333333  8.48019207683073 6  8.61464585834334 6  L 17.3733493397359 6  C 17.4981992797119 6  17.6206482593037 5.95052083333333  17.7406962785114 5.8515625  C 17.8607442977191 5.75260416666666  17.9399759903962 5.63541666666666  17.9783913565426 5.5  L 18.280912364946 4.5  C 18.3193277310924 4.36458333333333  18.3097238895558 4.24739583333333  18.2521008403361 4.1484375  C 18.1944777911164 4.04947916666667  18.0984393757503 4  17.9639855942377 4  L 9.20528211284514 4  C 9.08043217286915 4  8.95798319327731 4.04947916666667  8.83793517406963 4.1484375  C 8.71788715486194 4.24739583333333  8.63865546218488 4.36458333333333  8.60024009603842 4.5  Z M 7.40456182472989 8.5  L 7.10204081632653 9.5  C 7.06362545018007 9.63541666666667  7.07322929171669 9.75260416666667  7.13085234093638 9.8515625  C 7.18847539015606 9.95052083333333  7.28451380552221 10  7.41896758703481 10  L 16.1776710684274 10  C 16.3025210084034 10  16.4249699879952 9.95052083333333  16.5450180072029 9.8515625  C 16.6650660264106 9.75260416666667  16.7442977190876 9.63541666666667  16.7827130852341 9.5  L 17.0852340936375 8.5  C 17.1236494597839 8.36458333333333  17.1140456182473 8.24739583333333  17.0564225690276 8.1484375  C 16.9987995198079 8.04947916666667  16.9027611044418 8  16.7683073229292 8  L 8.00960384153661 8  C 7.88475390156063 8  7.76230492196879 8.04947916666667  7.6422569027611 8.1484375  C 7.52220888355342 8.24739583333333  7.44297719087635 8.36458333333333  7.40456182472989 8.5  Z " fill-rule="nonzero" fill="#1890ff" stroke="none" fill-opacity="0.847058823529412" transform="matrix(1 0 0 1 286 318 )" />
  </g>
</svg>